<svg width="300" height="300" viewBox="0 0 300 300" fill="none" xmlns="http://www.w3.org/2000/svg">
<path d="M2.5 25C2.5 12.5736 12.5736 2.5 25 2.5H275C287.426 2.5 297.5 12.5736 297.5 25V275C297.5 287.426 287.426 297.5 275 297.5H25C12.5736 297.5 2.5 287.426 2.5 275V25Z" stroke="url(#paint0_linear)" stroke-width="5"/>
<path d="M247.266 150.391C247.266 163.984 246.992 177.617 247.344 191.211C247.93 215.273 232.812 233.867 213.555 242.148C205.82 245.469 197.695 247.227 189.297 247.227C163.008 247.266 136.68 247.617 110.391 247.109C90.5859 246.719 74.2969 238.438 62.6172 222.109C56.4844 213.516 53.5547 203.75 53.5547 193.164C53.5547 165.156 53.5547 137.187 53.5547 109.18C53.5547 86.3281 64.6875 70.3516 84.4531 59.9609C93.0469 55.4687 102.383 53.5547 112.109 53.5156C137.617 53.5156 163.164 53.3594 188.672 53.5937C208.477 53.75 225 61.3281 237.188 77.2656C243.984 86.1719 247.266 96.4062 247.266 107.656C247.266 121.875 247.266 136.133 247.266 150.391ZM67.9688 150.391C67.9688 164.727 67.9688 179.023 67.9688 193.359C67.9688 199.766 69.4531 205.781 72.7734 211.211C81.4844 225.469 94.6484 232.422 110.977 232.695C137.188 233.086 163.438 232.852 189.688 232.773C196.133 232.773 202.383 231.445 208.203 228.672C224.062 221.094 232.93 209.023 232.852 190.898C232.695 163.164 232.812 135.43 232.812 107.695C232.812 99.8437 230.586 92.6562 225.938 86.3281C216.953 74.1797 204.531 68.2031 189.688 68.0469C163.516 67.7344 137.344 67.9297 111.172 67.9687C105.586 67.9687 100.195 69.1016 94.9609 71.0547C80.5859 76.4062 67.2266 89.9609 67.8516 109.922C68.3203 123.437 67.9688 136.914 67.9688 150.391Z" fill="white"/>
<path d="M150.625 191.797C125.43 191.797 105.117 171.719 105.078 146.719C105.039 122.109 125.508 101.953 150.547 101.953C175.664 101.914 196.055 122.031 196.094 146.836C196.094 171.602 175.742 191.758 150.625 191.797ZM150.625 177.344C167.774 177.344 181.68 163.633 181.641 146.758C181.602 130.039 167.695 116.367 150.625 116.367C133.477 116.367 119.492 130 119.492 146.836C119.531 163.711 133.477 177.383 150.625 177.344Z" fill="white"/>
<path d="M201.367 88.2812C206.641 88.2812 210.938 92.7734 210.938 98.2812C210.899 103.789 206.563 108.242 201.289 108.203C196.094 108.164 191.836 103.711 191.836 98.3203C191.797 92.8125 196.094 88.2812 201.367 88.2812Z" fill="white"/>
<defs>
<linearGradient id="paint0_linear" x1="486.786" y1="263.478" x2="204.75" y2="661.125" gradientUnits="userSpaceOnUse">
<stop stop-color="#6C86E4"/>
<stop offset="1" stop-color="#8B0BC7"/>
<stop offset="1" stop-color="#8B0BC7"/>
</linearGradient>
</defs>
</svg>
