<svg width="300" height="300" viewBox="0 0 300 300" fill="none" xmlns="http://www.w3.org/2000/svg">
<path d="M2.5 25C2.5 12.5736 12.5736 2.5 25 2.5H275C287.426 2.5 297.5 12.5736 297.5 25V275C297.5 287.426 287.426 297.5 275 297.5H25C12.5736 297.5 2.5 287.426 2.5 275V25Z" stroke="url(#paint0_linear)" stroke-width="5"/>
<g clip-path="url(#clip0)">
<path fill-rule="evenodd" clip-rule="evenodd" d="M64.0345 64.0345C50 78.0689 50 100.657 50 145.833V154.167C50 199.343 50 221.931 64.0345 235.965C78.0689 250 100.657 250 145.833 250H154.167C199.343 250 221.931 250 235.965 235.965C250 221.931 250 199.343 250 154.167V145.833C250 100.657 250 78.0689 235.965 64.0345C221.931 50 199.343 50 154.167 50H145.833C100.657 50 78.0689 50 64.0345 64.0345ZM89.5837 112.5H104.17C107.898 112.5 109.301 114.131 110.699 118.17C117.833 138.946 129.862 157.104 134.807 157.104C136.661 157.104 137.512 156.25 137.512 151.542V130.066C137.177 123.953 135.041 121.309 133.459 119.351C132.482 118.142 131.716 117.194 131.716 115.852C131.716 114.221 133.11 112.5 135.427 112.5H158.35C161.441 112.5 162.517 114.152 162.517 117.861V146.752C162.517 149.842 163.859 150.923 164.786 150.923C166.641 150.923 168.186 149.842 171.586 146.443C182.095 134.701 189.512 116.624 189.512 116.624C190.44 114.462 192.15 112.5 195.858 112.5H210.445C214.856 112.5 215.783 114.77 214.856 117.861C213.002 126.358 195.23 151.387 195.23 151.387C193.685 153.859 193.067 155.095 195.23 157.876C195.992 158.942 197.617 160.535 199.478 162.356C201.39 164.229 203.551 166.345 205.275 168.382C211.541 175.429 216.263 181.375 217.578 185.472C218.78 189.583 216.697 191.667 212.529 191.667H197.942C194.035 191.667 192.068 189.479 187.817 184.751C186.015 182.747 183.802 180.286 180.858 177.343C172.204 169 168.495 167.918 166.332 167.918C163.396 167.918 162.517 168.75 162.517 172.917V185.995C162.517 189.583 161.37 191.667 152.098 191.667C136.645 191.667 119.662 182.287 107.608 164.983C89.5277 139.645 84.5825 120.487 84.5825 116.624C84.5825 114.462 85.4161 112.5 89.5837 112.5Z" fill="white"/>
</g>
<defs>
<linearGradient id="paint0_linear" x1="486.786" y1="263.478" x2="204.75" y2="661.125" gradientUnits="userSpaceOnUse">
<stop stop-color="#6C86E4"/>
<stop offset="1" stop-color="#8B0BC7"/>
<stop offset="1" stop-color="#8B0BC7"/>
</linearGradient>
<clipPath id="clip0">
<rect width="200" height="200" fill="white" transform="translate(50 50)"/>
</clipPath>
</defs>
</svg>
